<?xml version="1.0" encoding="utf-8"?>
<!-- Generator: Adobe Illustrator 24.1.0, SVG Export Plug-In . SVG Version: 6.00 Build 0)  -->
<svg version="1.1" id="Ebene_1" xmlns="http://www.w3.org/2000/svg" xmlns:xlink="http://www.w3.org/1999/xlink" x="0px" y="0px"
	 viewBox="0 0 274.1 192.1" style="enable-background:new 0 0 274.1 192.1;" xml:space="preserve">
<style type="text/css">
	@import url("https://fonts.googleapis.com/css?family=Open+Sans+Condensed:300,700");
	.st0{fill:#00A99D;}
	.st1{fill:#E6E6E6;}
	.st2{opacity:0;}
	.st3{fill:none;stroke:#AAAAAA;stroke-width:0.5;stroke-miterlimit:10;}
	.st4{fill:none;stroke:#808081;stroke-miterlimit:10;}
	.st5{fill:#1D1D1B;}
	.st6{font-family:'Open Sans Condensed'; font-weight:300;}
	.st7{font-size:14px;}
	.st7a{font-size:11px;}
	.st8{fill:#666666;}
	.st9{fill:#FFFFFF;}
	.st10{fill:#666666;stroke:#0071BC;stroke-width:2;stroke-miterlimit:10;}
	.st11{fill:#666666;stroke:#009245;stroke-width:2;stroke-miterlimit:10;}
	.st12{fill:#EDEDED;stroke:#009245;stroke-width:2;stroke-miterlimit:10;}
	.st13{fill:#EDEDED;stroke:#0071BC;stroke-width:2;stroke-miterlimit:10;}
	.st13a{fill:none;stroke:#ED1C24;stroke-width:1.2;stroke-miterlimit:10;}
	.st14{fill:#ED1C24;}
	.st15{font-family:'Open Sans Condensed'; font-weight:700;}
	.st16{fill:none;stroke:#1D1D1B;stroke-miterlimit:10;}
	.st17{fill:none;stroke:#1D1D1B;stroke-width:0.7683;stroke-miterlimit:10;}
	.st18{fill:none;stroke:#1D1D1B;stroke-width:0.8045;stroke-miterlimit:10;}
	.st19{fill:#009245;}
	.st20{font-size:6px;}
	.st21{fill:#0071BC;}
	.st22{fill:#FCEE21;}
	.st23{fill:none;stroke:#FFFFFF;stroke-width:0.2491;stroke-miterlimit:10;}
	.st24{fill:#F9B233;}
	.st25{fill:#ededed;}
	.st26{font-size:4px;fill:#999;}
</style>
<g id="swiss" transform="translate(10,10), scale(0.5)" class="st2">
	<path class="st25" d="M332.1,293.7c-0.1,0.4-0.6,0.2-0.9,0.1c-0.2-0.1-0.4-0.1-0.6-0.1c-0.2-0.1-0.4-0.2-0.6-0.2
		c-0.1-0.2,0.1-0.3,0.2-0.4c0.2-0.3,0.1-0.8,0.3-1.1c0.2-0.3,0.2-1.2,0.6-1.3c0.2-0.1,0.4,0.1,0.6,0.1c0.3,0,0.5,0,0.7,0.1
		c0.1,0.4-0.1,0.7-0.2,1.1c-0.1,0.4-0.1,0.9-0.2,1.3L332.1,293.7z M304.6,24.4c-0.5,0.1-1,0.1-1.4,0c-0.5-0.2-1-0.8-1.5-0.6
		c-0.7,0.3-1.2,1.5-2,1.5c0,0-0.9-0.1-0.6-0.2c-0.2-0.4-0.8-0.9-0.1-1.1c0.4-0.1,1.2-0.5,1.2-1c0-0.6-1.4-1.4-0.8-2.2
		c0.4-0.5,1.1,0.4,1.6,0.4c0.5,0,2.4-1.3,2.5,0c0.1,0.5-0.2,1,0.3,1.5c0.3,0.3,0.6,0.5,0.6,1L304.6,24.4L304.6,24.4z M184.8,39.4
		l-1.2,3c-0.5,0.4-1.1-0.1-1.7-0.1c-0.8,0-0.5,0.6-0.8,1c-0.5,0.8-1.4,1.6-2.1,2.1c-0.6,0.5-1.1,1.2-1.8,1.5
		c-0.9,0.5-1.8,0.6-2.4,1.6c-0.9,1.7,2,0.8,2.6,0.8c1,0.8,0.1,1.1,0.1,2.3c0,1-1.5-0.6-1.7-0.7c-1.2-0.5-1,0.1-0.5,0.8
		c1.5,1.9-0.8,5.5-2.9,5.8c-0.9,0.1-1.3-0.8-2-1.2c-0.5-0.4-2.2-1.4-2.8-1.4c-0.1,0-0.4,0.9-0.6,1c-0.2,0.2-0.8,0.9-0.8,1.2
		c0.7,0,1.3-0.5,1.9,0.1l1.5,1.5c0.7,0.7-0.6,1.2-1.1,1.5c-1.1,0.1-1.5,1.5-2,2.3c-1.2,1.7-3.6,2.3-5.6,2.4c-1.4,0.1-2.5-0.2-3.6-1
		c-0.6-0.4-0.7-0.3-1.3-0.2c-0.8,0.2-1.6,0.2-2.3,0.4c-1.2,0.9-3.1,1.2-4.4,2c-0.7,0.4-2,1.4-2,0.2c0-0.8-0.7-1.4-1.1-2
		c-0.9-1.2-2.3,1-3.6,0c-0.5-0.4-1.1-0.5-1.8-0.5c-0.2,0-1.4-0.1-1.4-0.3c1.1-0.5,0.7-2.6,0.7-3.5c0.5-1.1,0.6-1.7,1.2-2.7
		c0.5-0.7,1.3-1.2,1.3-2.1c-1.3,0-2,1.6-3.7,0.7l-3-1.7c-1.3-0.8-5.2,2.9-7.1,2.2c-3.2-1.1-5.5-3.7-8.4-0.9
		c-0.4,0.4-0.6,3.2-0.2,3.5c1,1,2.3,2.4,0.7,3.6c-0.8,0.3-2-0.2-2.4,0.7c-0.3,0.9-0.9,1.8-2,1.7c-2.2-0.4-1.1,1.4-1.3,2.7
		c-0.3,1.9-1.8,1.7-2.8,2.6c-1.5,1.2,0.2,2.4-2.2,3.2c-1.7,0.5-1.9,2.3-1.9,3.8c-0.4,1.7,2.1-0.2,2.9-0.2c0.7,0,1.1,0.5,1.9,0.3
		c1.7-0.4,3.3-0.8,5-0.9c1.2,0,2.2,0.3,3.1-0.6c0.3-0.3,0.9-1.5,1.4-1.2c0.5,0.4,1.2,0.2,1.6,0.5c0.4,0.2-0.1,0.6,0.8,0.8
		c1.9,0.3,2.2,3.1,2.2,4.8c0,1.6-2.6,0.7-3.4,1c-0.8,0.2-1.1,2.1-1.2,2.7l-0.8,2c-1,0.2-2,0.5-3.1,0.7c-1.4,0.3-3.4-0.9-3.8,1.3
		c-0.1,0.8,0.6,2.5,0.9,3.3c0.1,0.3,0.2,1,0.1,1.2c-0.6,1.2,0.1,0.6,0.1,1.5c0,0.3-0.3,0.7-0.6,0.8c-0.6,0.2-0.4,1.2-1.1,1.6
		c-0.8,0.5-0.8,0.6-1.3,1.8c-0.5,1.2-2.3,1.6-3.1,2.6c-0.5,0.6-1.3,0.8-1.8,1.3c-0.5,0.5-0.4,1.1-0.7,1.7c-0.5,1-2.5,0.8-3,1.6
		c-0.8,1.2,0.8,1,1.7,1.3c1.4,0.6-1.8,2.1-2.3,2.5c-0.4,0.3-2.6,2.2-2.9,2.3c-0.5,0.2-0.9,0.9-1.6,1.3c-0.8,0.4-2.1,1-2.9,1.2
		c-0.9,0.3-1.4,0.9-2.2,1.3c-1.3,0.6-0.3,1.9-0.4,3.1c-0.1,1.2-2.5-0.3-3.2,0.5c0,0-0.2,0.1-0.3,0.2c-0.5,0.4-0.4,0.9-0.3,1.5
		c0.2,0.6-0.9,0.9-1.5,1.3c0.3,0.7,2.1,2.3,2.8,2.5c0,0.3-1.8,1.4-2.1,1.8c-0.6,0.7-1.1,0.6-2,0.9c-1.2,0.3-2.3,1.2-2.9,2.2
		c-0.3,0.5-0.3,1.1-0.5,1.7c-0.3,0.8-1,1.3-1.6,1.9c-0.7,0.9-2.3,0.8-3.3,0.9c-1.4,0-1.1,0.5-2.2,1.3c-2.1,1.3-4.7,1.2-6.8,2.3
		c-0.4,0.2-1,0.7-1.5,0.3c-1.6-1.2-0.8-0.4-2.4,0.8c-1.8,1.3-2.7,3.9-4.6,5.3c-1,0.7,0.4,1.3,0.9,2.1l1.9,3.4
		c-0.6,0.8-0.3,3.3-0.5,4.4c-0.1,0.9-0.2,1.8-0.5,2.7c-0.3,0.8-0.7,1.5-1.1,2.2c-0.3,0.5-0.4,1.2-0.6,1.7c-0.3,0.9-0.9,1.5-0.6,2.5
		c0.5,1.4,0.9,1.4,1.7,2.5c0,0.4,0.8,0.7,0.4,1.3c-0.4,0.6-0.4,1.5-0.7,2.2c-0.3,0.8-1.6,1.7-2.3,2c-2,0.8-3.6,0.3-3.7,2.8
		c0,0.9-0.7,1.1-1.5,0.9c-0.9-0.2-0.3,0.6-0.9,1l-7.2,4.4c-1.2,0.7-2.9,1.2-3.4,2.7c-0.5,1.6-2.4,2.6-3.2,4
		c-1.1,0.8-2.2,1.5-3.1,2.6c-0.4,0.5-0.9,0.4-1.3,0.8c-0.6,0.5-1.3,1.5-1.9,2.1c-0.7,0.7-0.8,0.7-1.6,1.2c-0.9,0.5-2.2,2-3,2.7
		l-2.8,2.6l4.8,4.7l-0.7,0.9l0.7,0.8l-3.9,3c-0.3,0.8-0.7,1.4-1,2.1c-0.6,1.5-1,2.7-1.9,4c-0.6,0.8-1.2,1.5-1.9,2.3
		c-1.3,1.4,1.7,1.4,1.3,2.8c-0.3,1.1-1.6,2.9-2.3,3.9l2.9,1.3c1.6,0.7,2.4,2.3,4.2,3c0.8,0.3,0.9,1.1,1.5,1.6c0.6,0.4,1.6,0.7,2,1.2
		c0.4,0.2,0.8,0.8,0.4,1.2c-0.9,0.9-0.8,2-1.6,2.8c-0.7,0.7-1.6,0.8-1.6,2c0,1.4-1.8,1.9-2,3.3c-0.1,0.7,0.2,1.2,0.2,1.8
		c0,0.7-0.9,1.7-1.4,2.1c-0.7,1.3,0.3,1.4,0,2.5c-0.2,0.9,0.5,0.9,1,1.4c0.4,0.4,1.3,1.6,0.8,2c-0.5,0.3-1.9,2.1-2.3,2.1
		c0,0,0,0-0.1,0c-0.4-0.5-1.2-1.6-1.9-1.3c-0.4,0.1-0.7,0.4-1.1,0.5c-0.6,0.2-0.7-0.5-1-0.5c-0.1-0.1-0.5,0.3-0.5,0.4
		c-0.2,0.4-1.3,1.6-1.7,1.7c-0.6,0.1-0.7-0.6-1.2-0.6c-0.4,0-1.8,0.4-2.1,0.7c-0.3,0.2-0.1,0.7-0.7,1.1c-0.5,0.3-0.7,0.4-1.3,0.3
		c-0.5,0.3-0.7,0.6-1.1,0.9c-0.7,0.6-1.4,1.1-1,2.1c0.2,0.5,0.6,0.8,1.1,1.1c0.6,0.4,1.4,2.2,1.9,2.8c-0.7,0-1.2-0.5-1.2,0.8
		c0,0,0,0,0,0c-0.2-0.1-1.1-1-1,0.3c0,0.7-0.3,1.6-0.7,2.2c-0.4,0.7-0.7,1-0.9,1.7c-0.1,0.2,0,0.9,0,1.1c0,0.1,0,0.1,0.1,0.1
		l2.7-0.7c0.8-0.3,2.1-0.2,3-0.3c1-0.1,2,2,3,0c0.7-1.5,1-1,2.5-1c0.8,0,2.4-0.3,3,0.3c3.1,3.1,4.7-0.3,7.5-1.4
		c1-0.6,1.2-0.3,1.6-1.5c0.2-0.6,0-1.2,0-1.7c0-0.2,2-2.1,2.3-2.3c0.6-0.5,1.4-1.4,2.1-1.7c0.7-0.3,1.1,0,1.7-0.1
		c0.7-0.1,1.9-1.1,2.6-1.5c1.1-0.6,2-1.2,2.9-2c1.4-1.7,1.3-2.4,0.7-4.4c-0.1-0.4,0-1.2-0.4-1.3c-0.6-0.2-1.9,2-2.8,2.1
		c-0.9,0.1-2.3-2.9-2.8-3.5c-0.4-0.5-1.3-1.4-0.4-1.9c1-0.5,0.8-2,0.4-3l0,0c-0.1,0.1-0.3,0.1-0.5,0.1c-0.1,0.5,0,0.8-0.2,1.4
		c-0.2,0.6-0.9,0.9-1.3,1.4c-0.6,0.8-1.2,3.3-2.3,3.3c-1.1,0-1,0.2-1,1.3c0,0.9-0.2,3.1-0.7,3.7c-0.4,1.1-1.6,2.9-2.6,3.3
		c-0.4,0.2-0.8,0.4-1.1,0.7c-0.7,0.4-0.6,0.6-0.6-0.1c0.2-0.1,0.1-1.1,0.3-1.3c-0.4-0.7,0.1-3.4,0.1-4.2c0-1.2,0.8-2.9,1.8-3.4
		c0.2-0.1,0.2-0.6,0.2-0.8c0.4-0.9-0.3-1.3-0.2-2.1c0-0.4,0.9-0.9,0.2-1.1c0-0.4,0-0.7,0.3-0.9c0.2-0.2,0.3-0.3,0.4-0.6
		c0.1-0.2,0.5-0.6,0.7-0.8c0.3-0.4,0.6-0.7,0.9-1.1c0.5-0.7,0.6-1.2,0.9-2.1c0.3-0.8,0.5-1.4,0.6-2.2c0.1-1.2,0.6-2.2,1.4-3.1
		c1.1-1.3,2.1-3.1,3.3-4.1c0.6-0.5,0.9-1.2,1.9-0.8c0.9,0.4,1.3,0,1.7-1c0-0.5-0.4-0.9-0.4-1.3c1.1,0,1.3-2,1.3-2.7
		c1.5,0,1.6-1,2.4-2c0.2-0.2,0.5-1.1,0.6-1.1c0.8-0.2,1.1-0.5,1.7-1.1c0.5-0.5,0.2-1.1,1.1-1.3c1-0.2,2.1-0.8,3-0.8
		c1,0,1.7,1,2.5,0.7c1.2,0.2,1.3-0.6,2.2-0.9c1.4-0.5,2.5-1,3.8-1.7c0.3-0.2,0.9,0.1,0.9-0.3c0.1-0.8,0.3-1.6,1.3-1.8
		c0.9-0.2,0.6-0.2,1-1c0.2-0.3,0.6-0.6,0.9-0.8c0.7-0.4,0.8-1.3,1.5-1.6c0.7-0.4,2.2-0.3,2.8,0.2c1,0.6,1.9,1.2,3.2,0.7v-0.2
		c0.2-0.1,0.2-0.6,0.7-0.6c0.7,0,1-0.8,1.6-0.8c0.5,0,1.1,0.1,1.3,0.6c0.1,0.2,1.9,0.5,2.5,1.1c0.8,0.8,0.8-0.4,1.6,0.1
		c1,0.6,2.4,0.1,3.8,0.5l2.3,0.7c1,0.3,1.5,1,2.3,1.4c0.5,0,1.4,0.7,1.8,0.6c1.4-0.5,1.3-0.9,2.3,0.3c1.7,1.8,3.5,0.9,5.2,1.9
		c0.6,0.4,3.4,0.6,3.5,1c0.1,1.5,1.2,0.6,2,1.3c0.4,0.3,0.3,1.3,0.7,1.3c0.7,0,0.9,0,1.6,0.2c0.3,0.1,0.3,0.4,0.4,0.6
		c0.6,0.8,2.4-0.1,2.8,0.9c0.1,0.3,0.3,1,0.4,1.1c0.3,0.3,1-0.1,1,0c0.1,0.1,0.2,0.5,0.2,0.7c0.1,0.3,0.2,0.4,0.4,0.6
		c0.1,0.1-0.1,0.2,0,0.4c0.2,0.6,0.9,1.4,0.3,2c-0.4,0.4-0.3,0.9-0.7,1.3c-0.3,0.3-1.8,0.1-2.2,0l-0.4,0c-0.6,0-3.9,0.4-4.1,0h-0.1
		c-0.3,0.4,0.5,1.2-0.2,1.4c-0.5,0.1-1.3,0.1-1.9,0.1c-1.2,0.1-2.7-0.3-3.4-1.1l0,0l-0.4,1.2c0.4,1.1,0.5,1.1-0.5,1.9
		c-0.8,0.6-2.8,1.4-2.9,2.4c-0.1,0.9,0.6,1.6,1,2.4c0.4,0.9,0.5,1.6,1.5,1.7c0.9,0.1,0.2,0.7,0.6,1.3c0.4,0.7,2,0.9,2.6,1.7
		c0.8,1,0.7,2.2,2,3.1c1.1,0.4,3.3,1.6,2,3.1c-0.6,0.7-0.5,2.7-1.2,3c-1.1,0.5-0.9,0.6-1.4,1.6c-0.3,0.6-0.6,1.3-1.4,1.3
		c-0.6,0-0.4,0.5-0.4,1c0,0.8-0.7,1.2-1,1.9c-0.5,1.2-0.5,1.1-0.5,2.3c-0.1,1.9,1.1,3.8-1,5.2c-1.1,0.8-0.3,2.3-0.3,3.3
		c0.2,2,0.4,1.2,1.7,2.1c1,0.7,1.4-0.1,2.5-0.1c0.6,0,1,0.7,1.6,0.8c1,0.3,1.7,0.1,2.6,0.6c0.7,0.4,1.4-0.3,2.1-0.2
		c0.5,1,0.2,2.7-0.4,3.8c-0.6,0.6-0.7,1-0.2,1.9c1.2,2.2-3.3,4.1-0.8,6.4c1.9,1.8,4.1-2.9,5.8-2.9c0,0.8,0.3,1.5,0.6,2.1
		c0.4,0.6,1,0.9,1.5,1.4c0.6,0.6,0.7,1.7,1.4,2.3c0.8,0.6,1.4,1.4,1.6,2.3c-0.3,2.2,1.9,1.3,2.4,2.4c0.3,0.7,1.8,2.1,1.6,2.6
		c-0.2,0.7-1.5,0.3-1.5,1.5c0.1,1.6,2,1.4,2.9,2c0.4,0.3,0.3,2.8,0.5,3.4l0.3,1.7l0,0c0.5,0.2,0.6,0.6,1,0.9
		c0.9,0.5,1.1,0.5,1.1,1.6c0,1.5,1.4,1.1,1.6,2.3c0.1,0.6,0.4,0.8,0.8,1.2c0.5,0.5,0.6,0.9,0.9,1.5c0.6,1,0.6,2,2,2
		c1.4,0,3.7-3.8,4.8-2.9l2.7,2.2c2.2,1.8,1.4-1.5,2.9-2.6c0.4-0.3,1.3-1.9,1.8-1.3c0.8,0.8,1.6-0.6,2.2-0.3c0,2,2.4-0.5,2.8-1.1
		c0.6-0.8,1.6-4,2.8-3.2c0.6,0.4,1.3,0.3,1.8,0.6c0.4,0.3,0.3,1,0.9,1c1,0,1.2-1.4,2.2-0.7c0.7,0.5,1.1,0.8,1.6,1.4
		c0.5,0.5,1.2,0.2,1.7,0.7c1.7,1.7,1.8-1.4,2.9-1.4c1.4,0,2.5-2,3.6-3c0.8-0.7,1.5-0.8,2.5-0.6c1.8,0.3,1.2-1.3,1.2-2.4
		c0.7-0.3,2.5-2.1,3-2c0.2,0,0,0.8,0.4,0.8c1,0,0.5-1.1,2-0.3c2.1,1.1,2.6-0.2,2.1-2.2c-0.3-1.2,1.2-2.2,2.3-2.3
		c2.6-0.4,0.8,2.4,3.1,2.9c1.1,0.2,2-0.5,3.1-0.3c1.1,0.2,2.3,0.3,3.2-0.4c1.3,0.2,2.2,0.1,2.5,1.7c0.4,1.9,1.2,0.9,2.5,1.3
		c1.5,0.5,0.3,3.7,2.2,4.8c2,1.2,1.8-3,3.6-2.6c0.7,0.2,2.4,0.6,2.7,1.3c0.7,1.5,2,2.7,3.4,1.4c1.5-1.4,2.3,0.2,3.9,0.4
		c1-0.3,2,1.3,2.7-0.4c0.2-0.6-1.2-1-0.8-1.7c1.1-1.8,1.1-3,0.9-4.9c-0.1-1.2,1.7-1.4,2.4-2.3c0.4-0.6,0.7-2,1.5-2.1l6.2-0.6
		c0.9-0.1,1.1,0.6,1.9,0.6c0.3,0,1.2-1.8,1.5-2.2c0.6-0.6,1.2,0.1,1.4-1.2c0.1-1.2-0.3-2.4,1-3.2c1.4-0.9,1.2-0.9,0.4-2.5
		c-0.5-1.1-0.7-2.2-0.3-3.4c0.2-0.5,0.9-1,0.9-1.5c0.1-1.2-0.1-1.4,1.1-2.1c1.3-0.7,3-1.1,4.4-1.5c1.4,0.2,2.8-0.1,3-1.7
		c0.5-3.1,3.2-1.3,4.6-3.5c0.5-0.7-0.4-1.3-0.7-2c-0.2-0.5-0.2-0.8,0.2-1.2c0.5-0.6,0.7-1.1,1.1-1.8c0.5-1,0.2-0.8-0.4-1.5
		c-0.3-0.4-0.9-0.7-0.8-1.3c0.2-1.1-0.3-1.9-1.1-2.6c-0.6-0.6-0.2-1.2-0.7-1.8c-0.8-0.8-1.4-1.4-1.8-2.5c-0.1-0.3-0.4-0.4-0.4-0.6
		c-0.4-1.3-0.7-0.8-2-1.1c-0.4-0.3-1.7-1.6-1.4-2.2c1.1-0.2,2.7-2.1,3.6-2.9c1-0.8,1.2-2.5,2.6-3.1c0.5-0.2,1.6,1.3,2.4,1.3
		c0.8,0.1,3.6-1.1,4.3-1.6c1.1-0.9,2.2-3.3,2.5-4.7c0.8-1,4.7-1.5,4.1-3c-0.2-0.6-0.2-1.6,0.5-1.9c0.5-0.2,0.8,0.4,1.3,0.4
		c0.7,0,0.9-0.6,1.2-1c0.7-0.8,2-0.8,2.4-2c0.2-0.7-0.2-1.3-0.1-2c0.1-1-1.1-0.9-1.7-1.2c-1.4-0.8-0.2-1.4,0.5-2.4
		c1.2-1.4,1.2-0.2,2.6-1.2l3.4-2.6c1.2-0.9,1.7-1.1,3.1-1.1c1.5,0,4.8-2.4,5.9-1.9c0.4,0.2,1.7,1.7,1.9,2.1c0.4,0.7,0.3,1.2-0.1,1.9
		c-0.2,0.5-0.5,2.8-0.2,3c0.5,0.4,0.7,0.8,0.4,1.4c-0.3,0.6,0.2,1.3,0.4,1.8c0.4,0.9-0.7,1.3-0.2,2.4c0.3,0.7,0.5,1.5,0.5,2.3
		c0,1.3-1.1,1.9-0.6,3.1c0.2,0.6,0.2,1.3,0.1,1.9c-0.1,0.3-1.2,1.9-1.5,2c-0.4,1-1,0.1-0.9,1.6c0.1,0.9-0.3,1.3-1.1,1.7
		c-1.9,0.9,3.3,4.5,2.1,6.2c-1,1.3-1.4,2.2,0.8,2.2c0.8,0,0.8,0.4,0.7,1.1c-0.1,0.8,0.4,1.1,1,1.5c0.3,0.4,2,0.1,2.6,0.3
		c0.6,0.2,0.9,1,1.3,1.4c0.7,0.7,1.9-1.3,2.2,0.6c0.1,0.7,0.6,2,1.1,2.5c0.5,0.4,0.9,0.7,1.2,1.2c0.2,0.3,0.1,0.8,0.4,1.1
		c0.4,0.4,1,0.5,1.2,1.2c0.1,0.6,0,1.8,0.7,2.1c1,0.4,1.8,0.9,2.9,1.2c0.6,0.1-0.7,1.5-0.7,1.9c0,0.5,1.4,0.7,1.5,1.5
		c0.3,3.7,1.5,1,3.5,1.3c1,0.1,1,1.8,2,2c0.7,0.1,1.7-0.3,2.3,0.2c0.7,0.6,0.7,0.9,1.7,1.4c0.3,0.1,0.7,0.2,0.9,0.4
		c0,0,0.4,0.4,0.5,0.3c0.5-0.3,3-3,3.1-3.7c0.1,0,0.1,0,0.2,0c0,0.8,2.3,3.3,3,3.8c1.5,1.2,2.1,0.4,3.2-0.5c0.8-0.7,1-0.1,1.6,0.5
		c0.8,0.9,1.5,1.9,2.6,2.5c1.7,0.9,1.5,0.7,1.5,2.6c-0.2,0.6-0.1,1.4-0.5,1.9c-0.4,0.4-0.6,0.6-1.1,0.3c-0.9-0.4-1,0.4-0.9,1
		c0.1,0.8-0.5,1.4-0.9,2c-0.8,0.9-1.9,0.9-2.7,1.9c-0.7,0.9-0.2,1.9-0.7,2.8c-0.2,0.4-0.8,0.8-0.6,1.3c0.2,0.6,1.2,0.2,1.6,0.1
		c1.2-0.4,1.2,0.7,2.4,0.5c0.4-0.1,0.9-0.2,1.2,0.1c0.6,0.5,0.5,0.7,0.8,1.3c0.1,0.2,0.4,0.3,0.5,0.5c0.9,0.9,2.6,2.9,4.1,2.7
		c1.6-0.3,2.2,0.6,1.5,2c-0.5,1-0.3,1.6,0,2.5c0.3,1.2,1.7,1.4,2,2.6c0,0.3,0.3,0.7,0.4,1c0.2,0.4,0.1,0.6-0.1,0.9
		c-0.2,0.7,0.4,0.9,0.5,1.4c0.4,1.4,0.1,3.4,1.8,3.4c0,0.3-2.1,2-2.4,2.6c-0.4,0.7-1.4,2.5-1.1,3.3c1.1-0.3,4.5-2.7,5.3-1.5
		c0.4,0.6,0.9,1.3,1.7,1c0.8-0.3,1-1.1,2-0.5c1.2,0.7-1.5,2.6,1.2,2.9c2.4,0.2,2.9-0.9,3.3-3.1c0.2-1.1,1.1-1.7,1.2-2.7
		c0.4-1.1,0.2-2,1.1-2.8c0.6-0.5,2.3-1.2,2.3-2.2c0-1,0.8-0.8,1-1.6c0.4-1.4-1.4,0.2-1.6-0.8c-0.1-0.3,0.2-1,0-1.3
		c-0.3-0.4-1.2-0.3-1.6-0.9c-1-1.5-2.5-1.5-4-1.9l-0.1-0.3c0.3-0.5-0.1-1.2-0.5-1.4c-0.6-0.4,0.1-0.8,0.1-1.2c0-0.3,0-0.6,0-1
		c0-2.1-1.6-1.2-2.9-2.1c-0.8-0.6,0.9-0.6,0.9-1.3c0-0.2-0.5-0.6,0.1-0.6c0.5,0,0.8-0.1,0.6-0.7c0.4-0.2,1.5-0.9,1.7-1.3
		c0.4-0.6,0.2-1.1,0-1.7c-0.3-1.4,0.3-2-0.8-3.2c-0.7-0.7-0.2-1.7-0.1-2.5c0.1-0.5,0.6-0.9,0.6-1.3c0.7-0.6,3-2.2,3.9-2
		c1.8,0.3,2.6,0.6,2.6-1.6c0-0.8,0.2-1.2,0.8-1.7c0.5-0.5-0.2-2.6-0.5-3.1c-0.4-1.6-1.2-2.1,0.4-2.9c0.9-0.4,2.3-1.6,3.2-1.6
		c1,0,1.2-1.9,1.6-2.6c0.9-1.2,2-1.2,3-2.1c0.7-0.6,0-1.1,1.3-1.3c1-0.2,1.6-0.2,2.4-0.8c0.6-0.5,0.4-2.1,0.4-2.9
		c0.3-0.7,0.3-1.7,1-2c0.9-0.4,1.3-0.3,1.7-1.3c0.2-0.6-0.3-0.9-0.3-1.2c0.4-0.3,1.3-1,1.7-1.1c0.7-0.2,1.3,0.8,1.5-0.4
		c0.3-1.4,0-3.2,0.4-4.6c0.1-0.3,0.5-0.5,0.6-0.8c0.1-0.4,0-0.8,0.2-1.2c0.4-0.5,0.9-0.5,1-1.2c0.5-0.6,1.5-1.4,1.6-2.2
		c0.1-0.5-0.4-1.1-0.4-1.6c0.1-0.5,2.4-1.6,1.9-2.6c-0.2-0.5-0.9-1.3-0.6-1.8c0.5-0.7,0.5-1.9-0.3-2.3c-1.5-0.8-1.9-2.8-0.9-4.2
		c0.7-1.2,0.1-1.2-0.6-1.9c-0.9-1,0.2-1.2,0.5-2c0.2-0.4-0.6-1.1-0.8-1.5c-0.5-0.9-1.9-0.5-2.3-1.2c-0.4-0.9-1.4-3.2-0.2-3.8
		c0.6-0.3,2-0.1,2.1-0.9c1.3-1.3,1.3-2.6,0.6-4.2c-0.4-0.8,0.5-2.4,1.4-2.5c0.9-0.1,2-0.5,2.9-0.8c1.3-0.5,3.2,0.2,4.1-0.2
		c0.3-0.2,0.9-0.9,1.2-0.7c1.3,0.8,0.3,2.2,1.3,3.4l1.6,2c2.9,3.7,2.7-1.1,4.1-3.1c0.7-0.9,2.3-1.1,2.7-2c0.7-1.6,0.8,2.1,0.8,2.6
		c-0.1,1-1.6,0.6-1.1,1.4c0.5,0.8,0.9,0.7,1.6,0.8c0.1,0.4-0.1,0.8-0.2,1.2c-0.7,1.3-0.2,2.3-0.4,3.8c-0.2,1.2-0.8,2.8-0.3,4
		c0.3,0.7,0.8,2.3,0.6,3.1c0.2,0.9,0.4,1.5,0.2,2.4c-0.2,0.6-0.7,0.9,0,1.4c1,0.7,3.3,1.3,3.8,2.4c0.4,0.9,0.6,2.1,0.9,3.1
		c0.2,0.6,0.6,1.1,0.6,1.7c1.2,1.2,2,2.5,3.3,3.6c1,0.9,1.5-0.9,2.2,0c0.4,0.6,0.9,1.2,1.5,1.5c1,0.4,2-0.8,2.8,0
		c1.2,1.3,2.2,1.8,4,1.2c0.6-0.2,2.4-1.3,2.6-2c1.3-1.2,1.3,1.2,3,1.2c1.2,0,2.3-0.1,2.1-1.4c-0.2-1.2,0.7-1.3,0.8-2
		c0.1-1.4-1.8-1-0.1-2.5c0.9-0.8-0.7-3.2,1.7-3.1c2.8,0.1,2.4,4,5.3,1.3c0.9-0.8,2.3-1.1,3.3-1.7c0.6-0.3,0.6-1.1,0.9-1.2
		c0.9-0.5,3.7,0.1,3.9-0.1c0.4-0.3,1.4-0.8,1.6-1.2c0.2-0.4-0.1-0.6,0.5-0.8c0.9-0.2,1.7-0.1,2-1.1c0.2-0.5,1.6,2.3,2.3,2.3
		c0.9-0.1,0.8-1.7,1.7-2c2-0.6,1.3,0.2,1.8,1.7c0.2,0.6,1.1,1.2,1.4,1.7c0.6,0.7,1.6,0.8,2.5,0.8c0.9,0-0.6,1.9-0.9,2.1
		c-0.1,0.8-0.8,1.4-0.6,2.3c0.1,0.5,1,0.9,1.4,1.2c1.1,0.9,1.1,2.1-0.3,2.8c-0.3,0.1,0.2,1.3,0.3,1.6c0.3,0.8,2.5,1.3,3.3,1.4
		c1.4,0.2,3.1,1.9,3.7,3.2c0.4,0.8-0.1,2.7-0.8,3.3c-0.1,0.1-0.6,0.3-0.6,0.4c0,0.5,2,2.3,2.5,2.3c0.5,0,1-1.1,1.5-1.4
		c0.4-0.2,0.8-0.1,1.3-0.2c0.7,0,1.5,0,2.2,0.3c0.4,0.2,0.8,0.3,1.2,0.2c0.8-0.1,1.5-0.7,1.8-1.5c0.7-1.8,3.3-2.2,3.1-4.2
		c-0.3-0.7-1.2-1.2-1.2-2c0-0.9-0.5-0.8-0.7-1.5c-0.2-0.4,0-0.8-0.2-1.2c-0.3-0.6-1-0.7-1.4-1.2c-0.5-0.6-0.5-1.6-1.4-1.9
		c-0.5-0.2-1-0.2-1.3-0.7c-0.6-0.9-1.1-2.5-1-3.6c0-0.9,0.5-1.3,0.7-2c1.8-1.4,1.6-1,1.2-3.2c-0.1-0.7,1.4-1.8,2-2
		c0.6-0.3,1.4,0.6,1.8-0.5c0.3-1-0.1-1.5,0.4-2.5c0.5-1-0.3-1.9-1.4-1.4c-0.6,0.3-0.3-1-0.4-1.4c-0.2-0.8-1.1-1.4-1.8-1.2l-2.6,0.6
		c-0.7,0.2-0.4,1-1.4,1c-0.6,0-1.1,0-1.6-0.3c-0.4-0.3-0.1-1.3-0.8-1.1c-1.6,0.5-1.3-1.3-2.7-1.9c-1.8-1.3,0.3-2,0.7-3.2
		c0.4-1.3-1.6-2.2-0.9-3.1c0.5-0.7-0.3-1.3,0.1-1.8c0.2-0.3,0.4-0.7,0.3-1c-0.1-0.4-0.6-0.6-0.6-1.2c0-0.2,0.9-0.4,1-1
		c0.2-0.9,0.2-1.4,0-2.4c0.5-0.8-0.8-1.4-0.3-1.9c0.7-0.7,1.6-0.1,2.1-1.1c0.2-0.5,0-1.1,0.3-1.5c0.4-0.5,1.5-0.4,1.3-1.3
		c-0.4-1.7-0.4-1,1-1.3c1.3-0.2,0.9-2.4,0.4-3.1c-0.1-0.1,0.7-1.3,0.8-1.6c0.1-1,0.2-1,1-0.3c0.7,0.6,2.4,1,2.8-0.2
		c1.6-1,3.5-1,4.8-2.2c1.2-1.1,1.9,1.8,3.2,1c0.9-0.5,0.9-1.7,1.5-2.2c0.9-0.6,1.4-0.4,1.6,0.8c0.2,1.4,2.1,1.6,1.2,3.1
		c-0.4,0.7-1.4,1.9-1.4,2.6c0,0.4,0.5,1.1,0.3,1.4c0.6,0.7,0.1,1.2,1.4,1.4c0.6,0.1,0.9-0.3,1.4-0.5c1.1-0.4,0.9,0,1.6,0.9
		c0.9,1.1,2.1,3.7,3.8,3.1c0.3-0.1,0.9-0.7,1.1-0.6c0.3,0.3,0.4,1.3,1,1c0.6-0.2,1.3-0.5,1.3-1.2c0.1-1.2,1.2,0.1,1.6-0.1
		c1.9,0.4,3.4,2.5,4.9,0.6c0.5-0.7,3,2.1,3.7,2.6c0.9,0.8,0.9-0.7,1.3-1.1c0.4-0.4,0.8-0.6,1.2-1c1-1.2,0.9-3.5,1.1-4.9
		c0.2-1.1,0.4-1.8,0.2-3c-0.4-1.4,0.7-1.5,0.7-2.5c-0.9-0.8-2-1.3-2.7-2.4c-0.8-1.2-1.6-1.9-3.1-1.7c-0.8,0.1-2.4,0.9-3.1,0.7
		c-1-0.3-1-1.6-1.4-2.4c-0.7-1.3,0.3-3.1-0.8-4.2c0-0.4-0.5-1.4-0.2-1.5c0.4-0.2,0.9-0.2,1.1-0.6c0.4-0.6,0.4-1.8,0.9-2.1
		c0.3-0.2,0.9,0.1,1.1-0.4c0.1-0.3,0.4-1.4,0.3-1.8c-0.1-0.5-1.2-2-1.6-2.1l0,0c0-0.7,2.5-1.2,2.5-2.2c0.8-0.6,2.4-1.2,2-2.4l-1-2.7
		c-0.1-0.4-1.3-1.3-1.3-1.4c0-0.3,1-1.5,1.1-1.5c1.5,0,2-0.8,2.4-2.2c0.1-0.5-0.4-1.6,0.3-1.7c0.2-0.4,0-1.3,0.1-1.9
		c0.5-0.1,0.9-0.1,0.6-0.8c-0.3-0.5,0.5-0.8,0.7-1.2l-0.1-1.3l0,0c0.2-0.5,0.3-1.4,0.2-1.9c0-0.8-0.4-1.5-0.4-2.2
		c0-1.5,0.8-2.4,1-3.8c0.2-0.6,0.9-1.1,0.9-1.9c0-0.7-0.6-1-0.3-1.8c0.1-0.3,0.6-0.7,0.5-1c0-0.2-1.4-0.5-1.6-0.6
		c-0.3-0.1-0.5-0.5-0.8-0.7c-1-0.7-2.2-1.2-3.4-1.5c-3-0.2,0-3.1-1.4-3.8c-0.8-0.4-3-3.4-3.6-3.3c-1.3,0.3-0.9,2.2-2.7,1.6
		c-1.7-0.6-2.1,1.1-2.7,2.4c-0.5,1-0.9,4.1-2.3,4.1c-1.3,0-1.3,1.2-0.8,2.3c0.5,1.2,1.4,1.4-0.6,1.6c-0.5,0.1-0.8,0.7-1,0.6
		c-0.7-0.1-1.3-0.7-2-0.8c-1.6-0.4-3.4-1.9-3.9,0.2c-0.1,1,0,2.9-0.8,3.8c-0.8,0.9-0.2,1.6,0,2.6c0.1,0.7,0.1,1.5,0.2,2.2
		c0.2,0.8-1.9,0.4-2.4,0.8c-0.5,0.4-1.1,0.2-1.6-0.1c-0.9-0.4-2.2,2.4-3.6,2.4c-0.6,0.2-1.3-0.1-1.8,0c-0.5,0.2-0.9,0.6-1.4,0.6
		c-1.1-0.1-2.1,1-2.6,0.8c-0.7-0.3-0.9-1-1.5-1.3c-1.1-2.8-5.2-0.8-4.5-3.8c0.2-0.9-0.1-1-0.9-1.5c-0.8-0.5-1.9-1.6-2.5-2.3
		c-0.6-0.8-2.4,0.6-3.6-0.9c-0.4-0.6-0.6-1.4-0.8-1.8c-0.2,0-0.6,0.3-0.8,0.4c-0.7,0-1.3-0.4-2-0.4c-0.6,0.1-1.2,0.2-1.8,0.1
		c-0.6-0.1-2.5-1.2-3.1-1.6c-0.7-0.5-1.2-1-2-1.5c-0.9-0.4-1.2-1.2-1.1-2.2c0.2-1.1-0.8-2.1-0.4-2.9c0.3-0.6,0.1-0.8,0.2-1.5
		c0.1-0.4,1.1-0.8,1-1.4c-0.2-0.8,1.2-0.5,0.7-1.5c-0.6-1.1-1.1-1.1-1.9-2c-0.8-0.9-0.2-1.1,0.5-1.8c0,0,0,0,0-0.1
		c-0.5-0.2-1.9-0.5-2.3-0.2c-0.7,0.5-2.3,1.6-3,0.5c-0.5-0.8-0.9-0.5-1.6-0.8c-0.4-0.2-1.9-1.1-2.2-1.4c-1.6-1.7-1.4-0.9-3.6-0.9
		c-1.3,0.2-1.6-0.8-2.6-1.2c-0.9-0.3-1.9,0.2-2.6-0.6c-0.3-0.4,0-0.8-0.7-0.8c-1.3-0.1-1.3-0.4-2.2-1c0-0.1-0.1-0.3-0.1-0.4
		c-0.9,0-1.8,0.7-2.9,0.6c-0.9-0.1-1.2-0.1-1.6,0.9c-0.6,1.3-2.9-0.7-3.7-0.9l0,0l-0.9,0.2c-0.9,0.3-1.9,0.5-2.8,0.8
		c-0.5,0.2-1.6,1-1.7,0.1c-0.2-1.7-0.8-2.2-2.5-1.5c-1.1,0.5-1.9,0.8-3.1,0.8c-0.7,0-1,0.4-1.6,0.6l-0.9,0.8c-0.5-0.9-1-2-0.6-3
		c0.4-0.8,1.6-1.1,2.4-1.6c1.5-1,2.4-2,2.4-3.8c0-1.7-0.6-4.2-1.1-5.8c-0.5-1.5-1.6-2.6-1.9-4.1c-0.2-1.1-0.5-2.3-0.5-3.5
		c0-1.7,1.4-2.5,1.5-4.1c0.1-1.4,0.8-2.2,1.5-3.4c0.5-0.8,0.8-1.7,1.2-2.6c0.3-0.9,0.2-2.2,0.6-3.1l0,0c0.1-0.3,0.3-0.6,0.5-0.7
		c2-1.4,1.5-3.6,3.7-4.5c2.5-1,2.3-3.6,3-5.7c0.5-1.4,1.2-2,2.1-3c0.9-0.9,1.5-1.4,2.9-1.4c0.8,0,1.9-0.3,2.4-0.9
		c1.2-1.5,0.9-2.4-0.3-3.6c-0.8-0.8-1.2-1.9-1.4-3c-0.2-1.1-1-3.5-0.3-4.3c0.2-0.3,0.5-0.5,0.7-0.6c-0.5-0.5-1.1-1.3-1.8-1.7
		c-0.6-0.3-1.3-0.4-1.9-0.5c-0.9-0.1-2.5-0.1-3.1-0.9c-0.4-0.5-0.7-1.2-0.8-1.8c-0.3-0.9-1.1-1.7-1.8-2.2l-0.8-1.1l0,0
		c-0.2-0.9-1.2,0.9-1.4,1.1c-0.7,1-0.8,1.4-2.1,1.6c-2.6,0.5-4.9,0.5-5.9-2c-0.4-0.9-2.6-0.2-2.6-2l0,0c-0.3,0-0.5,0.2-0.8,0.2
		c-0.4,0-0.1-0.6-0.3-0.7c0-0.2,0.2-0.2,0.4-0.2c0,0,0,0,0.1-0.1c0.3-1.4-1.6-1.2-2.2-2.2c-0.5-0.7-1.4-1.5-2.1-2.1
		c-0.6-0.4-1-1.4-1.5-1.7c-0.7-0.4-0.7-2.9,0-3.2l-3.3-2c-1.5-0.9-3.6-1.9-4.7-3.2c-1-0.7-1.8-1.8-2.9-2.4c-1.2-0.6-2.5-1.1-3.6-1.8
		c-0.9-0.6-1.1-0.8-2.2-1c-0.9-0.2-1.4-1.4-2.2-1.4c-1.3,0-2.7-1-3-2.3c-0.2-0.4-0.2-0.7-0.1-0.8c0-0.1,0-0.1,0-0.1
		c-0.1-0.1-0.3-0.3-0.5-0.4c-0.4-0.2-0.7-0.3-1.1-0.3c-0.3,0-0.6,0-0.9,0.1c-0.6,0.2-1.7,1.2-2.3,0.5c-0.2-0.2-0.5-0.3-0.7-0.4
		c-0.9-0.4-2.9-1.6-3.6-1.8c-1.2-0.4-2.5,0-3.6-0.6c-2.6-1.4-6.1,0.2-8.4,1.4c-1.4,0.8-2.6,2.1-4.1,2.7c-0.6,0.3-1.8,0.8-2.5,0.9
		c-0.7,0-1.3,0.3-2,0.4c-1.2,0.2-1.8-1.1-2.8-1.1c-0.4-0.9-0.6-3.3-1.5-3.7c-0.2-0.1-1.1-0.5-1.1-0.8c0.1-0.7,1-0.6,0.6-1.4
		c-0.4-0.7,0.7-1,1-0.7c1.2,1.2,0.9-0.4,0.6-1.1c-0.1-0.2-1.7-0.2-2-0.2c-0.8-0.1-0.7-0.7-1.2-1.1c-0.5-0.5-2,0.6-2-0.1
		c0-0.2,0.4-0.8,0.2-0.9c-0.3-0.1-0.8,0.2-0.8-0.2c-0.1-0.4-0.5-0.5-0.8-0.7c-0.7-0.4,0.7-1.9-0.4-1.6c-0.7,0.2-0.3,1.1-1.2,1.1
		c-0.8,0-0.7-0.1-1.3,0.6c-0.3,0.3-1.3,0.7-1.3,0.9c0,0.5,0.2,1,0.2,1.5c0.5,0.1,1.3,0.4,1.9,0.4c1.6,0.1,0.4,0.7,1,1.3
		c0.3,0.3,0.8,0.1,1.1,0.3c0.5,0.3-1,0.7-1.1,0.8c-0.8,0.9,0.1,1.7-0.5,2.6c-0.4,0-0.9-0.2-1.4-0.5c-1.9-1.1-2-2-4.4-2.3
		c-0.3,0-0.7,0-1.1,0.1l-0.3-1.3c0.3-0.3,0.8-2,0.8-2.5c0.2-1.7-1.8-0.6-2.1-1.8c-0.3-1-0.1-1.4,0.5-2.1c0.7-0.9,1.1-0.9,2.1-1.1
		c0.7-0.1-0.2-1.1-0.4-1.2c-0.6-0.6-1-1.3-1.8-1.6c-0.9-0.3-1.9,1.1-3.2,1c-0.5-0.7-1-1.8-0.2-2.4c0.1-0.5-0.5-1-0.5-1.8
		c-0.8-0.3-1-0.2-1.8-0.7c-1.1-0.7-0.5-0.9-0.9-1.8c-0.9,0-0.8,2.6-0.7,3.2c0.3,1.5-0.2,2.5-1.8,3.2c-0.7,0.3-0.7-0.5-1-1.1
		c-0.3-0.8-0.8-2-0.6-2.8c0.1-0.4,0.6-1.5,0.2-1.9c-0.4-0.5-1.4-1-2-0.7c-1.3,0.6-0.9-0.4-2.4-0.1c-0.6,0.1-0.4-0.9-0.7-0.8
		c-0.7,0-0.8,1-1.1,1.5c0,1.4,0.8,0.8,1.4,1.4c0.3,0.3,0.4,0.9,0,1.2c-1.6,1.3-1.5-1.2-3.1-0.3c-0.6,0.3-2,0.6-2.3,1.3
		c-0.6,1.4-1.1-0.3-1.8,0.1c-0.4,0.2-1,0.8-1.5,0.5c-1.1-0.7-2.8,2.2-3.3,3c-0.2,0.3-1.3,2.1-1.2,2.4c0.1,0.4,0.3,1,0.5,1.3
		c-0.5,1-0.7,1.1-1.6,1.7c-0.5,0.3-1.3,0.9-1.8,1.2c-0.4,0.2-0.8,0.2-1.1,0.5c-1.4,1.8,0.8,2.7,0.6,4.1c-0.1,0.9-2.7,0.7-1,2.1
		c0.6,0.5,1,0.4,1.7,0.6c0.9,0.2,0.7,1,1.2,1.4c0.3,0.2,1.9,0.5,2.2,0.4c0.4-0.1,0.3-0.6,0.7-0.6c0,0,0,0,0,0.1
		c0.1,0-0.2,1.1-0.2,1.3c0,0.4,0.4,1,0.7,1.3c0.3,0.3,1.1,0.1,0.7-0.2c-0.2-0.1-0.8-0.5-0.2-0.7c0.1-0.5,0.6-0.9,0.8,0
		c0.1,0.4,1.3,0.6,1.4,0c0.3-1.3,3.3,0.8,3.8-0.2c0.4-0.9-0.3-1.4-0.3-2.2c0.4-0.1,0.9-0.4,1,0.2c0.2,1,0.5,0.4,0.5-0.2l0-0.7
		c0.4-0.1,1-0.2,1.4-0.4c0.8-0.3,0.8-0.7,1.1,0.3c0.1,0.4,0.7,0.2,1,0.2c0.2,0,0.2,0.3,0.4,0.3c0.4,0,1.1-0.7,1.5-0.9
		c0.8-0.5,0.4-1,1.6-0.6c0.3,1.7,0.7,1.9,2.1,2.9c1.2,0.9-0.4,2.6-1.5,2.7c-2.8,0.1,1.1-1.1-0.2-2.4c-0.6-0.6-1.3,1-1.5,1.4
		c-1,2.1,1.9,4.4,0.3,5.8l-1,0.3c-0.8,0.2-1.1,1.2-1.9,1.3c-0.9,0-0.6-1.1-1-1.2c0-0.5,0.2-1.2,0.7-1.4c0.7-0.2-0.6-0.1-0.6-0.5
		c-0.1-1.6-1.7-1.6-2.7-2.1c-0.3-0.1-0.3-0.4-0.6-0.5c-0.8-0.2-2.2-0.7-2,0.8c0.2,1.1-2.3,1.9-3.2,2.1c-1,0.2-1,0.4-1.6,1.2
		c-0.5,0.7-1.8,0.2-1.3,1.3c0.3,0.8,0.3,1.6,1.1,1.9c1,0.4,1.5-0.4,2.2-0.2c0.4,0.1,0.5,1,0.4,1.3c-0.2,0-0.5,0.1-0.7,0.2
		c-1,0.4-2,1.1-3,1.2c-1.2,0.2-2.9,0.9-3.9,0.4c-2.1-1.2-2.8-2.4-4.3,0.1c-0.3,0.5-1.9-0.3-2.5-0.4c-1.6-0.1-2.9,0.2-4.2-0.5
		c-0.9-0.5-0.5-1.5-1.7-1.8c-0.9-0.2-1.2-1.2-1-2.1c0-0.2,0.3-1.5,0.1-1.6c0,0,0,0-0.1-0.1c-0.1-0.4-1.9-0.5-2.3-0.5
		c-1.1,0.2-1.4,0.5-1.7-0.7c0,0,0,0,0,0c-0.4,0-0.7,0.2-1.1,0.4c-0.3,0.2-0.6,0-0.9,0.1c-0.7,0.3-1.2,1.8-1.7,1
		c-0.5-0.8,0.1-1.7-0.7-2.3c-0.8-0.7-2,0.1-2.4,0.9c-0.3,0.5-0.7,1.3-1.3,1.6c-0.8,0.4-1.5,1.4-2.4,1.4c-0.7,0-1.9-0.3-2.1,0.6
		c-0.5,1.9-1.2,0.9-2.7,1.2c-1.4,0.3-1.1,1.7-1.5,2.7c-0.2,0.7-1.2,1.9-2,1.2c-1.9-1.7-2.4,0.4-4.4,0.8c-1.5,0.3-2.2,1.2-3.4-0.1
		c-0.5-0.6-2.3,0.1-3,0.1c-1.8,0-2.4-1.6-3.5,0.8c-0.6,1.4-3.3,0.5-3.9-0.5c-0.3-0.5-0.5-0.8-0.5-1.4c0-0.3,0.3-0.6,0.3-1
		c0.1-0.7-0.7-2-1.2-2.3c-0.7-0.5-0.9-0.9-1.8-1c-1.3-0.3-2.1-0.2-3.1,0.7c-1.3,1.1-1.8-0.8-3.1-0.4c-1.6,0.4-0.9,1.4-1.4,2.7
		c-0.5,1-2.1,2.2-3.1,2.7c-1,0.5-1.9,0.6-2.9,1.2c-0.8,0.5-2.3,0.2-3.3,0.3c-1.8,0.3-4.5,3.5-6.5-0.2c-0.4-0.8-0.8-0.9-1.2-1
		l0.1-0.4c0.4-0.3,0.7-0.6,1.1-0.9c0.4-0.3,0.4-0.7,0.6-0.9c0.7-0.6,1.1,0.4,1.6-0.1c0.3-0.3-0.1-0.9-0.4-1c0.1-0.3,0.8-0.1,0.9-0.4
		c0.1-0.2-0.1-0.6-0.2-0.8c-0.3-0.6-1.3-1.1-0.8-1.9c0.2-0.4,1.1-0.8,1.1-1.1c-0.8-0.3-0.9,0.3-1.7,0.6c-0.8,0.3-1.6,1-2.5,1
		c-0.4,0-0.6-0.4-1.1-0.3c-0.9,0.3-1.2,1.6-2,1.6c-0.5,0-0.9,0-1.3-0.3C185.5,41,185.7,39.9,184.8,39.4L184.8,39.4L184.8,39.4z"/>
</g>
<g id="grafik" class="">
<g id="test" class="st2">
<circle class="st0" cx="109.1" cy="96.4" r="7.2"/>
<path class="st22" d="M105.7,95.3l0.4,0.3l0.1-0.1c0.3,0.2,5.9,3.9,5.9,3.9c0.6,0.4,1.5,0.3,1.9-0.4c0.4-0.6,0.3-1.5-0.4-1.9
	c0,0-3-2-3-2h-4.8L105.7,95.3z"/>
<path class="st23" d="M107.4,92.7l-1.7,2.6l0.4,0.3l0.1-0.1c0.3,0.2,5.9,3.9,5.9,3.9c0.6,0.4,1.5,0.3,1.9-0.4
	c0.4-0.6,0.3-1.5-0.4-1.9c0,0-5.6-3.7-5.9-3.9l0.1-0.1L107.4,92.7z"/>
	<path class="st22" d="M106.8,97.8c0-0.7-1.3-2.3-1.3-2.3s-1.3,1.6-1.3,2.3s0.6,1.3,1.3,1.3S106.8,98.6,106.8,97.8z"/>
</g>
<g id="textbox" class="st2">
	<path class="st25" d="M264.9,188.2H9.9c-3.1,0-5.7-2.6-5.7-5.7v-36c0-3.1,2.6-5.7,5.7-5.7h255c3.1,0,5.7,2.6,5.7,5.7v36
			C270.6,185.6,268,188.2,264.9,188.2z"/>
</g>
<g id="pop" class="st2">
<path class="st4" d="M122.4,28.3H95.1c-2.1,0-3.7-1.7-3.7-3.7v-12c0-2.1,1.7-3.7,3.7-3.7h27.4c2.1,0,3.7,1.7,3.7,3.7v12
	C126.2,26.6,124.5,28.3,122.4,28.3z"/>
<text transform="matrix(1 0 0 1 94.3841 23.644)" class="st5 st6 st7">10000</text>
</g>
<g id="coneg" class="st2">
<line class="st16" x1="143.5" y1="44.5" x2="113.4" y2="31.4"/>
<text transform="matrix(1 0 0 1 158.4895 44.3855)" class="st6 st20">Covid–</text>
<path class="r3 st1 " d="M178.7,67.1h-32.4c-2.1,0-3.7-1.7-3.7-3.7v-12c0-2.1,1.7-3.7,3.7-3.7h32.4c2.1,0,3.7,1.7,3.7,3.7v12
	C182.5,65.4,180.8,67.1,178.7,67.1z"/>
<text transform="matrix(1 0 0 1 151.5222 62.4404)" class="st6 st7">9900</text>
</g>
<g id="copos" class="st2">
<line class="st16" x1="75.6" y1="44.5" x2="105.8" y2="31.4"/>
<text transform="matrix(1 0 0 1 51.5854 44.3855)" class="st6 st20">Covid+</text>
<path class="st8" d="M74.3,67.1H41.9c-2.1,0-3.7-1.7-3.7-3.7v-12c0-2.1,1.7-3.7,3.7-3.7h32.4c2.1,0,3.7,1.7,3.7,3.7v12
	C78,65.4,76.3,67.1,74.3,67.1z"/>
<text transform="matrix(1 0 0 1 49.191 62.4404)" class="st9 st6 st7">100</text>
</g>
<g id="fneg" class="st2" transform="translate(+3,0)">
<line class="st16" x1="76.7" y1="83.3" x2="59.6" y2="70.2"/>
<text transform="matrix(1 0 0 1 68.5761 111.7805)" class="st21 st6 st20">negativ</text>
<path class="st10" d="M90.5,105.9H63.1c-2.1,0-3.7-1.7-3.7-3.7v-12c0-2.1,1.7-3.7,3.7-3.7h27.4c2.1,0,3.7,1.7,3.7,3.7v12
	C94.2,104.2,92.6,105.9,90.5,105.9z"/>
<text transform="matrix(1 0 0 1 73.6337 101.2369)" class="st9 st6 st7">5</text>
</g>
<g id="rpos" class="st2" transform="translate(-3,0)">
<line class="st16" x1="37.9" y1="83.3" x2="55" y2="70.2"/>
<text transform="matrix(1 0 0 1 31.0673 111.7805)" class="st19 st6 st20">positiv</text>
<path class="st11" d="M51.3,105.9H23.9c-2.1,0-3.7-1.7-3.7-3.7v-12c0-2.1,1.7-3.7,3.7-3.7h27.4c2.1,0,3.7,1.7,3.7,3.7v12
	C55,104.2,53.3,105.9,51.3,105.9z"/>
<text transform="matrix(1 0 0 1 31.5945 101.2369)" class="st9 st6 st7">95</text>
</g>
<g id="fpos" class="st2" transform="translate(-3,0)">
<line class="st16" x1="144.1" y1="83.3" x2="161.3" y2="70.2"/>
<text transform="matrix(1 0 0 1 136.1978 111.7805)" class="st19 st6 st20">positiv</text>
<path class="st12" d="M155.4,105.9H128c-2.1,0-3.7-1.7-3.7-3.7v-12c0-2.1,1.7-3.7,3.7-3.7h27.4c2.1,0,3.7,1.7,3.7,3.7v12
	C159.1,104.2,157.5,105.9,155.4,105.9z"/>
<text transform="matrix(1 0 0 1 132.9438 101.2369)" class="st6 st7">495</text>
</g>
<g id="rneg" class="st2">
<line class="st16" x1="183" y1="83.3" x2="165.8" y2="70.2"/>
<text transform="matrix(1 0 0 1 176.5887 111.7805)" class="st21 st6 st20">negativ</text>
<path class="st13" d="M196.2,105.9h-27.4c-2.1,0-3.7-1.7-3.7-3.7v-12c0-2.1,1.7-3.7,3.7-3.7h27.4c2.1,0,3.7,1.7,3.7,3.7v12
	C199.9,104.2,198.2,105.9,196.2,105.9z"/>
<text transform="matrix(1 0 0 1 170.9047 101.2369)" class="st6 st7">9405</text>
</g>
<g id="eiszufuef" class="st2">
<text transform="matrix(1 0 0 1 76.9098 130.9534)" class="st14 st15 st7">1 : 5</text>
<polyline class="st17" points="37.5,115.8 37.5,127.4 71.1,127.4 "/>
<polyline class="st18" points="142.2,115.8 142.2,127.4 105.9,127.4 "/>
</g>

	<path transform="scale(1.2,1.6),translate(-8.2,-34.7)" class="problem1 st2 st13a" d="M51.3,105.9H23.9c-2.1,0-3.7-1.7-3.7-3.7v-12c0-2.1,1.7-3.7,3.7-3.7h27.4c2.1,0,3.7,1.7,3.7,3.7v12
		C55,104.2,53.3,105.9,51.3,105.9z"/>
	<path transform="scale(1.2,1.6),translate(-25.7,-34.7)" class="problem2 st13a st2" d="M155.4,105.9H128c-2.1,0-3.7-1.7-3.7-3.7v-12c0-2.1,1.7-3.7,3.7-3.7h27.4c2.1,0,3.7,1.7,3.7,3.7v12
		C159.1,104.2,157.5,105.9,155.4,105.9z"/>
<!-- Texte -->
<text transform="matrix(1 0 0 1 207.9986 59.9041)" class="proz st6 st20 st2">1 % der Bevölkerung</text>
<text transform="matrix(1 0 0 1 213.3511 94.8138)" class="sen st6 st20 st2">Sensitivität 95 %</text>
<text transform="matrix(1 0 0 1 214.9511 102.138)" class="spe st6 st20 st2">Spezifität 95 %</text>
</g>

<text transform="matrix(1 0 0 1 135 60)" text-anchor="middle" class="t1 st6 st7 st2">«Mein Antikörper-Test auf Covid-19 ist positiv»</text>
<text transform="matrix(1 0 0 1 135 80)" text-anchor="middle" class="t2 st6 st7 st2">«Super, dann bin ich also immun!»</text>
<text transform="matrix(1 0 0 1 135 110)" text-anchor="middle" class="t3 st6 st7 st24 st2">Sind Sie sicher?</text>
		
<text transform="matrix(1 0 0 1 135 60)" text-anchor="middle" class="t4 st6 st7 st2">Gute Tests finden Covid+ (Personen mit Antikörper) </text>
<text transform="matrix(1 0 0 1 135 80)" text-anchor="middle" class="t5 st6 st7 st2">und Covid– (ohne Antikörper) mit 95 % Sicherheit</text>
<text transform="matrix(1 0 0 1 135 110)" text-anchor="middle" class="t6 st6 st7 st24 st2">Nur Covid+ hatten die Infektion und sind immun</text>

<text transform="matrix(1 0 0 1 135 60)" text-anchor="middle" class="t7 st6 st7 st2">Ihr Test zeigt Covid+</text>
<text transform="matrix(1 0 0 1 135 80)" text-anchor="middle" class="t8 st6 st7 st2">wie wahrscheinlich sind Sie tatsächlich immun?</text>
<text transform="matrix(1 0 0 1 135 110)" text-anchor="middle" class="t9 st6 st7 st2">Über 95 %?   Ca. 60 %?  Unter 20 %?</text>

<text transform="matrix(1 0 0 1 135 60)" text-anchor="middle" class="t10 st6 st7 st2">In der CH haben wir ca. 25'000 bekannte Fälle</text>
<text transform="matrix(1 0 0 1 135 80)" text-anchor="middle" class="t11 st6 st7 st2">Tatsächlich sind wohl über 90'000 infiziert</text>
<text transform="matrix(1 0 0 1 135 110)" text-anchor="middle" class="t12 st6 st7 st24 st2">Also etwa 1 % der Bevölkerung</text>


<text transform="matrix(1 0 0 1 135 153.9298)" text-anchor="middle" class="te1 st6 st7a st2">Von 10‘000 Personen</text>
<text transform="matrix(1 0 0 1 135 168.3298)" text-anchor="middle" class="te2 st6 st7a st2">sind somit 100 Covid+,</text>
<text transform="matrix(1 0 0 1 135 182.7298)" text-anchor="middle" class="te3 st6 st7a st2">die übrigen 9‘900 sind Covid–</text>

<text transform="matrix(1 0 0 1 135 153.9298)" text-anchor="middle" class="te4 st6 st7a st2">Jetzt testen wir! Der Test zeigt bei den Covid+</text>
<text transform="matrix(1 0 0 1 135 168.3298)" text-anchor="middle" class="te5 st6 st7a st2">95 positive (+)</text>
<text transform="matrix(1 0 0 1 135 182.7298)" text-anchor="middle" class="te6 st6 st7a st2">5 negative (–) (falsch negativ)</text>

<text transform="matrix(1 0 0 1 135 153.9298)" text-anchor="middle" class="te4a st6 st7a st2">«falsch negativ» bedeutet:</text>
<text transform="matrix(1 0 0 1 135 168.3298)" text-anchor="middle" class="te5a st6 st7a st2">der Test zeigt irrtümlich (–), d.h. keine Antikörper an</text>
<text transform="matrix(1 0 0 1 135 182.7298)" text-anchor="middle" class="te6a st6 st7a st2">obwohl die Person Covid-Antikörper hat</text>

<text transform="matrix(1 0 0 1 135 153.9298)" text-anchor="middle" class="te7 st6 st7a st2">Bei den Covid– ergibt der Test</text>
<text transform="matrix(1 0 0 1 135 168.3298)" text-anchor="middle" class="te8 st6 st7a st2">9405 negative (–)</text>
<text transform="matrix(1 0 0 1 135 182.7298)" text-anchor="middle" class="te9 st6 st7a st2">und 495 positive (+) (falsch positiv)</text>

<text transform="matrix(1 0 0 1 135 153.9298)" text-anchor="middle" class="te7a st6 st7a st2">«falsch positiv» bedeutet:</text>
<text transform="matrix(1 0 0 1 135 168.3298)" text-anchor="middle" class="te8a st6 st7a st2">der Test zeigt irrtümlich (+)</text>
<text transform="matrix(1 0 0 1 135 182.7298)" text-anchor="middle" class="te9a st6 st7a st2">obwohl die Person keine Covid-Antikörper hat</text>

<text transform="matrix(1 0 0 1 135 153.9298)" text-anchor="middle" class="te10 st15 st7a st24 st2">Jetzt haben wir ein Problem:</text>
<text transform="matrix(1 0 0 1 135 168.3298)" text-anchor="middle" class="te11 st6 st7a st2">Wir haben viel mehr falsch positive</text>
<text transform="matrix(1 0 0 1 135 182.7298)" text-anchor="middle" class="te12 st6 st7a st2">als richtig positive</text>

<text transform="matrix(1 0 0 1 135 153.9298)" text-anchor="middle" class="te13 st6 st7a st24 st2">Nur 1 von 6 positiv getesteten Personen ist Covid+</text>
<text transform="matrix(1 0 0 1 135 168.3298)" text-anchor="middle" class="te14 st6 st7a st2">trotz positivem Test:</text>
<text transform="matrix(1 0 0 1 135 182.7298)" text-anchor="middle" class="te15 st6 st7a st2">Wahrscheinlichkeit Covid+ (immun) = nur 16 %</text>

<text transform="matrix(1 0 0 1 135 60)" text-anchor="middle" class="e1 st6 st7 st2">Darum</text>

<text transform="matrix(1 0 0 1 135 80)" text-anchor="middle" class="e2 st6 st7 st2">Ein «Immunitätsausweis» nach Antikörpertest ist sinnlos</text>
<text transform="matrix(1 0 0 1 135 100)" text-anchor="middle" class="e3 st6 st7 st2">Auch wenn Ihr Test Covid+ ist:</text>
<text transform="matrix(1 0 0 1 135 120)" text-anchor="middle" class="e4 st6 st7 st24 st2">Sie sind wahrscheinlich nicht immun!</text>
<text transform="matrix(1 0 0 1 135 140)" text-anchor="middle" class="e5 st6 st7 st24 st2">Befolgen Sie weiter alle Verhaltensregeln!</text>
<text transform="translate(269 184) rotate(-90)" class="st6 st26">© 2020 Markus Schenker</text>
<!-- ANIMATION -->
<style type="text/css">

	.t1 { animation: t1 10s forwards 1 running; } @keyframes t1 { 0% {opacity:0} 30% {opacity:1} 94% {opacity:1} 100% {opacity:0}}
	.t2 { animation: t2 7s 3s forwards 1 running; } @keyframes t2 { 0% {opacity:0} 30% {opacity:1} 88% {opacity:1} 100% {opacity:0}}
	.t3 { animation: t3 4s 6s forwards 1 running; } @keyframes t3 { 0% {opacity:0} 30% {opacity:1} 80% {opacity:1} 100% {opacity:0}}
	
	.t4 { animation: t1 10s 10s forwards 1 running; } @keyframes t4 { 0% {opacity:0} 30% {opacity:1} 94% {opacity:1} 100% {opacity:0}}
	.t5 { animation: t1 7s 13s forwards 1 running; } @keyframes t5 { 0% {opacity:0} 30% {opacity:1} 87% {opacity:1} 100% {opacity:0}}
	.t6 { animation: t1 4s 16s forwards 1 running; } @keyframes t6 { 0% {opacity:0} 30% {opacity:1} 80% {opacity:1} 100% {opacity:0}}
	
	.t7 { animation: t1 10s 20s forwards 1 running; } @keyframes t7 { 0% {opacity:0} 30% {opacity:1} 94% {opacity:1} 100% {opacity:0}}
	.t8 { animation: t1 7s 23s forwards 1 running; } @keyframes t8 { 0% {opacity:0} 30% {opacity:1} 88% {opacity:1} 100% {opacity:0}}
	.t9 { animation: t1 4s 26s forwards 1 running; } @keyframes t9 { 0% {opacity:0} 30% {opacity:1} 80% {opacity:1} 100% {opacity:0}}
	
	#swiss { animation: swiss 10s 30s forwards 1 running; } @keyframes swiss { 0% {opacity:0} 30% {opacity:1} 93% {opacity:1} 100% {opacity:0}}
	.t10 { animation: t1 10s 30s forwards 1 running; } @keyframes t10 { 0% {opacity:0} 30% {opacity:1} 94% {opacity:1} 100% {opacity:0}}
	.t11 { animation: t1 7s 33s forwards 1 running; } @keyframes t11 { 0% {opacity:0} 30% {opacity:1} 88% {opacity:1} 100% {opacity:0}}
	.t12 { animation: t1 4s 36s forwards 1 running; } @keyframes t12 { 0% {opacity:0} 30% {opacity:1} 80% {opacity:1} 100% {opacity:0}}
	
	#textbox { animation: tb 69s 40s linear forwards 1 running; } @keyframes tb { 0% {opacity:0} 2% {opacity:1} 98% {opacity:1} 100% {opacity:0}}
	
	<!-- population -->
	.te1 { animation: te1 10s 40s forwards 1 running; } @keyframes te1 { 0% {opacity:0} 20% {opacity:1} 94% {opacity:1} 100% {opacity:0}}
	#pop { animation: pop 1s 40s linear forwards 1 running; } @keyframes pop { 0% {opacity:0} 100% {opacity:1}}
	<!-- positive -->
	.te2 { animation: te2 7s 43s forwards 1 running; } @keyframes te2 { 0% {opacity:0} 20% {opacity:1} 88% {opacity:1} 100% {opacity:0}}
	#copos { animation: pop 1s 44s linear forwards 1 running; }
	.proz { animation: pop 1s 44s linear forwards 1 running; }
	<!-- negative -->
	.te3 { animation: te2 4s 46s forwards 1 running; } @keyframes te3 { 0% {opacity:0} 20% {opacity:1} 80% {opacity:1} 100% {opacity:0}}
	#coneg { animation: pop 1s 47s linear forwards 1 running; }
	
	<!-- Test bei Covid+ -->
	.te4 { animation: te4 10s 50s forwards 1 running; } @keyframes te4 { 0% {opacity:0} 30% {opacity:1} 94% {opacity:1} 100% {opacity:0}}
	#test { animation: pop 1s 50s linear forwards 1 running; }
	.te5 { animation: te5 7s 53s forwards 1 running; } @keyframes te5 { 0% {opacity:0} 30% {opacity:1} 88% {opacity:1} 100% {opacity:0}}
	#rpos { animation: pop 1s 53s linear forwards 1 running; }
	.sen { animation: pop 1s 53s linear forwards 1 running; }
	.te6 { animation: te6 4s 56s forwards 1 running; } @keyframes te6 { 0% {opacity:0} 30% {opacity:1} 80% {opacity:1} 100% {opacity:0}}
	#fneg { animation: pop 1s 56s linear forwards 1 running; }
	
	.te4a { animation: te4a 10s 60s forwards 1 running; } @keyframes te4a { 0% {opacity:0} 30% {opacity:1} 94% {opacity:1} 100% {opacity:0}}
	.te5a { animation: te5a 7s 63s forwards 1 running; } @keyframes te5a { 0% {opacity:0} 30% {opacity:1} 88% {opacity:1} 100% {opacity:0}}
	.te6a { animation: te6a 4s 66s forwards 1 running; } @keyframes te6a { 0% {opacity:0} 30% {opacity:1} 80% {opacity:1} 100% {opacity:0}}
	
	<!-- Test bei Covid- -->
	.te7 { animation: te7 10s 70s forwards 1 running; } @keyframes te7 { 0% {opacity:0} 30% {opacity:1} 94% {opacity:1} 100% {opacity:0}} 
	.te8 { animation: te8 7s 73s forwards 1 running; } @keyframes te8 { 0% {opacity:0} 30% {opacity:1} 88% {opacity:1} 100% {opacity:0}}
	#rneg { animation: pop 1s 73s linear forwards 1 running; }
	.spe { animation: pop 1s 73s linear forwards 1 running; }
	.te9 { animation: te9 4s 76s forwards 1 running; } @keyframes te9 { 0% {opacity:0} 30% {opacity:1} 80% {opacity:1} 100% {opacity:0}}
	#fpos { animation: pop 1s 76s linear forwards 1 running; }	
	
	.te7a { animation: te7a 10s 80s forwards 1 running; } @keyframes te7a { 0% {opacity:0} 30% {opacity:1} 94% {opacity:1} 100% {opacity:0}}
	.te8a { animation: te8a 7s 83s forwards 1 running; } @keyframes te8a { 0% {opacity:0} 30% {opacity:1} 88% {opacity:1} 100% {opacity:0}}
	.te9a { animation: te9a 4s 86s forwards 1 running; } @keyframes te9a { 0% {opacity:0} 30% {opacity:1} 80% {opacity:1} 100% {opacity:0}}
	
	.te10 { animation: te10 10s 90s forwards 1 running; } @keyframes te10 { 0% {opacity:0} 30% {opacity:1} 80% {opacity:1} 100% {opacity:0}}
	.te11 { animation: te11 7s 93s forwards 1 running; } @keyframes te11 { 0% {opacity:0} 30% {opacity:1} 80% {opacity:1} 100% {opacity:0}}
	.problem2 { animation: pop 1s 93s linear forwards 1 running; }
	.te12 { animation: te12 4s 96s forwards 1 running; } @keyframes te12 { 0% {opacity:0} 30% {opacity:1} 80% {opacity:1} 100% {opacity:0}}
	.problem1 { animation: pop 1s 96s linear forwards 1 running; }
	
	.te13 { animation: te13 10s 100s forwards 1 running; } @keyframes te13 { 0% {opacity:0} 30% {opacity:1} 80% {opacity:1} 100% {opacity:0}}
	#eiszufuef { animation: pop 1s 100s linear forwards 1 running; }
	.te14 { animation: te14 7s 103s forwards 1 running; } @keyframes te14 { 0% {opacity:0} 30% {opacity:1} 80% {opacity:1} 100% {opacity:0}}
	.te15 { animation: te15 4s 106s forwards 1 running; } @keyframes te15 { 0% {opacity:0} 30% {opacity:1} 80% {opacity:1} 100% {opacity:0}}
	
	#grafik { animation: graf 1s 109s linear forwards 1 running; } @keyframes graf { 0% {opacity:1} 100% {opacity:0}}
	
	.e1 { animation: e1 17s 110s forwards 1 running; } @keyframes e1 { 0% {opacity:0} 30% {opacity:1} 80% {opacity:1} 100% {opacity:0}}
	.e2 { animation: e2 14s 113s forwards 1 running; } @keyframes e2 { 0% {opacity:0} 30% {opacity:1} 80% {opacity:1} 100% {opacity:0}}
	.e3 { animation: e3 11s 116s forwards 1 running; } @keyframes e3 { 0% {opacity:0} 30% {opacity:1} 80% {opacity:1} 100% {opacity:0}}
	.e4 { animation: e4 8s 119s forwards 1 running; } @keyframes e4 { 0% {opacity:0} 30% {opacity:1} 80% {opacity:1} 100% {opacity:0}}
	.e5 { animation: e4 5s 122s forwards 1 running; } @keyframes e4 { 0% {opacity:0} 30% {opacity:1} 80% {opacity:1} 100% {opacity:0}}
</style>
</svg>
